%TF.GenerationSoftware,KiCad,Pcbnew,6.0.7-f9a2dced07~116~ubuntu20.04.1*%
%TF.CreationDate,2022-09-29T18:09:13+00:00*%
%TF.ProjectId,RGB,5247422e-6b69-4636-9164-5f7063625858,rev?*%
%TF.SameCoordinates,Original*%
%TF.FileFunction,Legend,Top*%
%TF.FilePolarity,Positive*%
%FSLAX46Y46*%
G04 Gerber Fmt 4.6, Leading zero omitted, Abs format (unit mm)*
G04 Created by KiCad (PCBNEW 6.0.7-f9a2dced07~116~ubuntu20.04.1) date 2022-09-29 18:09:13*
%MOMM*%
%LPD*%
G01*
G04 APERTURE LIST*
%ADD10C,0.150000*%
%ADD11C,0.120000*%
G04 APERTURE END LIST*
D10*
X106061904Y-99695238D02*
X106633333Y-99695238D01*
X106747619Y-99733333D01*
X106823809Y-99809523D01*
X106861904Y-99923809D01*
X106861904Y-100000000D01*
X106861904Y-98933333D02*
X106861904Y-99314285D01*
X106061904Y-99314285D01*
X106785714Y-98209523D02*
X106823809Y-98247619D01*
X106861904Y-98361904D01*
X106861904Y-98438095D01*
X106823809Y-98552380D01*
X106747619Y-98628571D01*
X106671428Y-98666666D01*
X106519047Y-98704761D01*
X106404761Y-98704761D01*
X106252380Y-98666666D01*
X106176190Y-98628571D01*
X106100000Y-98552380D01*
X106061904Y-98438095D01*
X106061904Y-98361904D01*
X106100000Y-98247619D01*
X106138095Y-98209523D01*
X106061904Y-97638095D02*
X106633333Y-97638095D01*
X106747619Y-97676190D01*
X106823809Y-97752380D01*
X106861904Y-97866666D01*
X106861904Y-97942857D01*
X106861904Y-96876190D02*
X106861904Y-97257142D01*
X106061904Y-97257142D01*
X106785714Y-96152380D02*
X106823809Y-96190476D01*
X106861904Y-96304761D01*
X106861904Y-96380952D01*
X106823809Y-96495238D01*
X106747619Y-96571428D01*
X106671428Y-96609523D01*
X106519047Y-96647619D01*
X106404761Y-96647619D01*
X106252380Y-96609523D01*
X106176190Y-96571428D01*
X106100000Y-96495238D01*
X106061904Y-96380952D01*
X106061904Y-96304761D01*
X106100000Y-96190476D01*
X106138095Y-96152380D01*
X106061904Y-95580952D02*
X106633333Y-95580952D01*
X106747619Y-95619047D01*
X106823809Y-95695238D01*
X106861904Y-95809523D01*
X106861904Y-95885714D01*
X106861904Y-94819047D02*
X106861904Y-95200000D01*
X106061904Y-95200000D01*
X106785714Y-94095238D02*
X106823809Y-94133333D01*
X106861904Y-94247619D01*
X106861904Y-94323809D01*
X106823809Y-94438095D01*
X106747619Y-94514285D01*
X106671428Y-94552380D01*
X106519047Y-94590476D01*
X106404761Y-94590476D01*
X106252380Y-94552380D01*
X106176190Y-94514285D01*
X106100000Y-94438095D01*
X106061904Y-94323809D01*
X106061904Y-94247619D01*
X106100000Y-94133333D01*
X106138095Y-94095238D01*
X106061904Y-93523809D02*
X106633333Y-93523809D01*
X106747619Y-93561904D01*
X106823809Y-93638095D01*
X106861904Y-93752380D01*
X106861904Y-93828571D01*
X106861904Y-92761904D02*
X106861904Y-93142857D01*
X106061904Y-93142857D01*
X106785714Y-92038095D02*
X106823809Y-92076190D01*
X106861904Y-92190476D01*
X106861904Y-92266666D01*
X106823809Y-92380952D01*
X106747619Y-92457142D01*
X106671428Y-92495238D01*
X106519047Y-92533333D01*
X106404761Y-92533333D01*
X106252380Y-92495238D01*
X106176190Y-92457142D01*
X106100000Y-92380952D01*
X106061904Y-92266666D01*
X106061904Y-92190476D01*
X106100000Y-92076190D01*
X106138095Y-92038095D01*
%TO.C,R3*%
X112952380Y-90228924D02*
X112476190Y-90562258D01*
X112952380Y-90800353D02*
X111952380Y-90800353D01*
X111952380Y-90419400D01*
X112000000Y-90324162D01*
X112047619Y-90276543D01*
X112142857Y-90228924D01*
X112285714Y-90228924D01*
X112380952Y-90276543D01*
X112428571Y-90324162D01*
X112476190Y-90419400D01*
X112476190Y-90800353D01*
X111952380Y-89895591D02*
X111952380Y-89276543D01*
X112333333Y-89609877D01*
X112333333Y-89467019D01*
X112380952Y-89371781D01*
X112428571Y-89324162D01*
X112523809Y-89276543D01*
X112761904Y-89276543D01*
X112857142Y-89324162D01*
X112904761Y-89371781D01*
X112952380Y-89467019D01*
X112952380Y-89752734D01*
X112904761Y-89847972D01*
X112857142Y-89895591D01*
%TO.C,R2*%
X115245591Y-99952380D02*
X114912258Y-99476190D01*
X114674162Y-99952380D02*
X114674162Y-98952380D01*
X115055115Y-98952380D01*
X115150353Y-99000000D01*
X115197972Y-99047619D01*
X115245591Y-99142857D01*
X115245591Y-99285714D01*
X115197972Y-99380952D01*
X115150353Y-99428571D01*
X115055115Y-99476190D01*
X114674162Y-99476190D01*
X115626543Y-99047619D02*
X115674162Y-99000000D01*
X115769400Y-98952380D01*
X116007496Y-98952380D01*
X116102734Y-99000000D01*
X116150353Y-99047619D01*
X116197972Y-99142857D01*
X116197972Y-99238095D01*
X116150353Y-99380952D01*
X115578924Y-99952380D01*
X116197972Y-99952380D01*
%TO.C,R1*%
X113452380Y-92903924D02*
X112976190Y-93237258D01*
X113452380Y-93475353D02*
X112452380Y-93475353D01*
X112452380Y-93094400D01*
X112500000Y-92999162D01*
X112547619Y-92951543D01*
X112642857Y-92903924D01*
X112785714Y-92903924D01*
X112880952Y-92951543D01*
X112928571Y-92999162D01*
X112976190Y-93094400D01*
X112976190Y-93475353D01*
X113452380Y-91951543D02*
X113452380Y-92522972D01*
X113452380Y-92237258D02*
X112452380Y-92237258D01*
X112595238Y-92332496D01*
X112690476Y-92427734D01*
X112738095Y-92522972D01*
%TO.C,Q1*%
X115404761Y-97547619D02*
X115309523Y-97500000D01*
X115214285Y-97404761D01*
X115071428Y-97261904D01*
X114976190Y-97214285D01*
X114880952Y-97214285D01*
X114928571Y-97452380D02*
X114833333Y-97404761D01*
X114738095Y-97309523D01*
X114690476Y-97119047D01*
X114690476Y-96785714D01*
X114738095Y-96595238D01*
X114833333Y-96500000D01*
X114928571Y-96452380D01*
X115119047Y-96452380D01*
X115214285Y-96500000D01*
X115309523Y-96595238D01*
X115357142Y-96785714D01*
X115357142Y-97119047D01*
X115309523Y-97309523D01*
X115214285Y-97404761D01*
X115119047Y-97452380D01*
X114928571Y-97452380D01*
X116309523Y-97452380D02*
X115738095Y-97452380D01*
X116023809Y-97452380D02*
X116023809Y-96452380D01*
X115928571Y-96595238D01*
X115833333Y-96690476D01*
X115738095Y-96738095D01*
%TO.C,J1*%
X109802380Y-96083333D02*
X110516666Y-96083333D01*
X110659523Y-96130952D01*
X110754761Y-96226190D01*
X110802380Y-96369047D01*
X110802380Y-96464285D01*
X110802380Y-95083333D02*
X110802380Y-95654761D01*
X110802380Y-95369047D02*
X109802380Y-95369047D01*
X109945238Y-95464285D01*
X110040476Y-95559523D01*
X110088095Y-95654761D01*
%TO.C,D10*%
X137285714Y-82452380D02*
X137285714Y-81452380D01*
X137523809Y-81452380D01*
X137666666Y-81500000D01*
X137761904Y-81595238D01*
X137809523Y-81690476D01*
X137857142Y-81880952D01*
X137857142Y-82023809D01*
X137809523Y-82214285D01*
X137761904Y-82309523D01*
X137666666Y-82404761D01*
X137523809Y-82452380D01*
X137285714Y-82452380D01*
X138809523Y-82452380D02*
X138238095Y-82452380D01*
X138523809Y-82452380D02*
X138523809Y-81452380D01*
X138428571Y-81595238D01*
X138333333Y-81690476D01*
X138238095Y-81738095D01*
X139428571Y-81452380D02*
X139523809Y-81452380D01*
X139619047Y-81500000D01*
X139666666Y-81547619D01*
X139714285Y-81642857D01*
X139761904Y-81833333D01*
X139761904Y-82071428D01*
X139714285Y-82261904D01*
X139666666Y-82357142D01*
X139619047Y-82404761D01*
X139523809Y-82452380D01*
X139428571Y-82452380D01*
X139333333Y-82404761D01*
X139285714Y-82357142D01*
X139238095Y-82261904D01*
X139190476Y-82071428D01*
X139190476Y-81833333D01*
X139238095Y-81642857D01*
X139285714Y-81547619D01*
X139333333Y-81500000D01*
X139428571Y-81452380D01*
X142935714Y-84102380D02*
X142364285Y-84102380D01*
X142650000Y-84102380D02*
X142650000Y-83102380D01*
X142554761Y-83245238D01*
X142459523Y-83340476D01*
X142364285Y-83388095D01*
%TO.C,D9*%
X136761904Y-98002380D02*
X136761904Y-97002380D01*
X137000000Y-97002380D01*
X137142857Y-97050000D01*
X137238095Y-97145238D01*
X137285714Y-97240476D01*
X137333333Y-97430952D01*
X137333333Y-97573809D01*
X137285714Y-97764285D01*
X137238095Y-97859523D01*
X137142857Y-97954761D01*
X137000000Y-98002380D01*
X136761904Y-98002380D01*
X137809523Y-98002380D02*
X138000000Y-98002380D01*
X138095238Y-97954761D01*
X138142857Y-97907142D01*
X138238095Y-97764285D01*
X138285714Y-97573809D01*
X138285714Y-97192857D01*
X138238095Y-97097619D01*
X138190476Y-97050000D01*
X138095238Y-97002380D01*
X137904761Y-97002380D01*
X137809523Y-97050000D01*
X137761904Y-97097619D01*
X137714285Y-97192857D01*
X137714285Y-97430952D01*
X137761904Y-97526190D01*
X137809523Y-97573809D01*
X137904761Y-97621428D01*
X138095238Y-97621428D01*
X138190476Y-97573809D01*
X138238095Y-97526190D01*
X138285714Y-97430952D01*
X133635714Y-96402380D02*
X133064285Y-96402380D01*
X133350000Y-96402380D02*
X133350000Y-95402380D01*
X133254761Y-95545238D01*
X133159523Y-95640476D01*
X133064285Y-95688095D01*
%TO.C,D8*%
X130261904Y-82452380D02*
X130261904Y-81452380D01*
X130500000Y-81452380D01*
X130642857Y-81500000D01*
X130738095Y-81595238D01*
X130785714Y-81690476D01*
X130833333Y-81880952D01*
X130833333Y-82023809D01*
X130785714Y-82214285D01*
X130738095Y-82309523D01*
X130642857Y-82404761D01*
X130500000Y-82452380D01*
X130261904Y-82452380D01*
X131404761Y-81880952D02*
X131309523Y-81833333D01*
X131261904Y-81785714D01*
X131214285Y-81690476D01*
X131214285Y-81642857D01*
X131261904Y-81547619D01*
X131309523Y-81500000D01*
X131404761Y-81452380D01*
X131595238Y-81452380D01*
X131690476Y-81500000D01*
X131738095Y-81547619D01*
X131785714Y-81642857D01*
X131785714Y-81690476D01*
X131738095Y-81785714D01*
X131690476Y-81833333D01*
X131595238Y-81880952D01*
X131404761Y-81880952D01*
X131309523Y-81928571D01*
X131261904Y-81976190D01*
X131214285Y-82071428D01*
X131214285Y-82261904D01*
X131261904Y-82357142D01*
X131309523Y-82404761D01*
X131404761Y-82452380D01*
X131595238Y-82452380D01*
X131690476Y-82404761D01*
X131738095Y-82357142D01*
X131785714Y-82261904D01*
X131785714Y-82071428D01*
X131738095Y-81976190D01*
X131690476Y-81928571D01*
X131595238Y-81880952D01*
X135435714Y-84102380D02*
X134864285Y-84102380D01*
X135150000Y-84102380D02*
X135150000Y-83102380D01*
X135054761Y-83245238D01*
X134959523Y-83340476D01*
X134864285Y-83388095D01*
%TO.C,D7*%
X128761904Y-96502380D02*
X128761904Y-95502380D01*
X129000000Y-95502380D01*
X129142857Y-95550000D01*
X129238095Y-95645238D01*
X129285714Y-95740476D01*
X129333333Y-95930952D01*
X129333333Y-96073809D01*
X129285714Y-96264285D01*
X129238095Y-96359523D01*
X129142857Y-96454761D01*
X129000000Y-96502380D01*
X128761904Y-96502380D01*
X129666666Y-95502380D02*
X130333333Y-95502380D01*
X129904761Y-96502380D01*
X125700714Y-94957380D02*
X125129285Y-94957380D01*
X125415000Y-94957380D02*
X125415000Y-93957380D01*
X125319761Y-94100238D01*
X125224523Y-94195476D01*
X125129285Y-94243095D01*
%TO.C,D6*%
X122761904Y-82452380D02*
X122761904Y-81452380D01*
X123000000Y-81452380D01*
X123142857Y-81500000D01*
X123238095Y-81595238D01*
X123285714Y-81690476D01*
X123333333Y-81880952D01*
X123333333Y-82023809D01*
X123285714Y-82214285D01*
X123238095Y-82309523D01*
X123142857Y-82404761D01*
X123000000Y-82452380D01*
X122761904Y-82452380D01*
X124190476Y-81452380D02*
X124000000Y-81452380D01*
X123904761Y-81500000D01*
X123857142Y-81547619D01*
X123761904Y-81690476D01*
X123714285Y-81880952D01*
X123714285Y-82261904D01*
X123761904Y-82357142D01*
X123809523Y-82404761D01*
X123904761Y-82452380D01*
X124095238Y-82452380D01*
X124190476Y-82404761D01*
X124238095Y-82357142D01*
X124285714Y-82261904D01*
X124285714Y-82023809D01*
X124238095Y-81928571D01*
X124190476Y-81880952D01*
X124095238Y-81833333D01*
X123904761Y-81833333D01*
X123809523Y-81880952D01*
X123761904Y-81928571D01*
X123714285Y-82023809D01*
X127935714Y-84102380D02*
X127364285Y-84102380D01*
X127650000Y-84102380D02*
X127650000Y-83102380D01*
X127554761Y-83245238D01*
X127459523Y-83340476D01*
X127364285Y-83388095D01*
%TO.C,D5*%
X120761904Y-96452380D02*
X120761904Y-95452380D01*
X121000000Y-95452380D01*
X121142857Y-95500000D01*
X121238095Y-95595238D01*
X121285714Y-95690476D01*
X121333333Y-95880952D01*
X121333333Y-96023809D01*
X121285714Y-96214285D01*
X121238095Y-96309523D01*
X121142857Y-96404761D01*
X121000000Y-96452380D01*
X120761904Y-96452380D01*
X122238095Y-95452380D02*
X121761904Y-95452380D01*
X121714285Y-95928571D01*
X121761904Y-95880952D01*
X121857142Y-95833333D01*
X122095238Y-95833333D01*
X122190476Y-95880952D01*
X122238095Y-95928571D01*
X122285714Y-96023809D01*
X122285714Y-96261904D01*
X122238095Y-96357142D01*
X122190476Y-96404761D01*
X122095238Y-96452380D01*
X121857142Y-96452380D01*
X121761904Y-96404761D01*
X121714285Y-96357142D01*
X125935714Y-98102380D02*
X125364285Y-98102380D01*
X125650000Y-98102380D02*
X125650000Y-97102380D01*
X125554761Y-97245238D01*
X125459523Y-97340476D01*
X125364285Y-97388095D01*
%TO.C,D4*%
X114761904Y-82452380D02*
X114761904Y-81452380D01*
X115000000Y-81452380D01*
X115142857Y-81500000D01*
X115238095Y-81595238D01*
X115285714Y-81690476D01*
X115333333Y-81880952D01*
X115333333Y-82023809D01*
X115285714Y-82214285D01*
X115238095Y-82309523D01*
X115142857Y-82404761D01*
X115000000Y-82452380D01*
X114761904Y-82452380D01*
X116190476Y-81785714D02*
X116190476Y-82452380D01*
X115952380Y-81404761D02*
X115714285Y-82119047D01*
X116333333Y-82119047D01*
X119935714Y-84102380D02*
X119364285Y-84102380D01*
X119650000Y-84102380D02*
X119650000Y-83102380D01*
X119554761Y-83245238D01*
X119459523Y-83340476D01*
X119364285Y-83388095D01*
%TO.C,D3*%
X120761904Y-90452380D02*
X120761904Y-89452380D01*
X121000000Y-89452380D01*
X121142857Y-89500000D01*
X121238095Y-89595238D01*
X121285714Y-89690476D01*
X121333333Y-89880952D01*
X121333333Y-90023809D01*
X121285714Y-90214285D01*
X121238095Y-90309523D01*
X121142857Y-90404761D01*
X121000000Y-90452380D01*
X120761904Y-90452380D01*
X121666666Y-89452380D02*
X122285714Y-89452380D01*
X121952380Y-89833333D01*
X122095238Y-89833333D01*
X122190476Y-89880952D01*
X122238095Y-89928571D01*
X122285714Y-90023809D01*
X122285714Y-90261904D01*
X122238095Y-90357142D01*
X122190476Y-90404761D01*
X122095238Y-90452380D01*
X121809523Y-90452380D01*
X121714285Y-90404761D01*
X121666666Y-90357142D01*
X117635714Y-88902380D02*
X117064285Y-88902380D01*
X117350000Y-88902380D02*
X117350000Y-87902380D01*
X117254761Y-88045238D01*
X117159523Y-88140476D01*
X117064285Y-88188095D01*
%TO.C,D2*%
X129761904Y-90452380D02*
X129761904Y-89452380D01*
X130000000Y-89452380D01*
X130142857Y-89500000D01*
X130238095Y-89595238D01*
X130285714Y-89690476D01*
X130333333Y-89880952D01*
X130333333Y-90023809D01*
X130285714Y-90214285D01*
X130238095Y-90309523D01*
X130142857Y-90404761D01*
X130000000Y-90452380D01*
X129761904Y-90452380D01*
X130714285Y-89547619D02*
X130761904Y-89500000D01*
X130857142Y-89452380D01*
X131095238Y-89452380D01*
X131190476Y-89500000D01*
X131238095Y-89547619D01*
X131285714Y-89642857D01*
X131285714Y-89738095D01*
X131238095Y-89880952D01*
X130666666Y-90452380D01*
X131285714Y-90452380D01*
X126635714Y-88902380D02*
X126064285Y-88902380D01*
X126350000Y-88902380D02*
X126350000Y-87902380D01*
X126254761Y-88045238D01*
X126159523Y-88140476D01*
X126064285Y-88188095D01*
%TO.C,D1*%
X137261904Y-90452380D02*
X137261904Y-89452380D01*
X137500000Y-89452380D01*
X137642857Y-89500000D01*
X137738095Y-89595238D01*
X137785714Y-89690476D01*
X137833333Y-89880952D01*
X137833333Y-90023809D01*
X137785714Y-90214285D01*
X137738095Y-90309523D01*
X137642857Y-90404761D01*
X137500000Y-90452380D01*
X137261904Y-90452380D01*
X138785714Y-90452380D02*
X138214285Y-90452380D01*
X138500000Y-90452380D02*
X138500000Y-89452380D01*
X138404761Y-89595238D01*
X138309523Y-89690476D01*
X138214285Y-89738095D01*
X142435714Y-92102380D02*
X141864285Y-92102380D01*
X142150000Y-92102380D02*
X142150000Y-91102380D01*
X142054761Y-91245238D01*
X141959523Y-91340476D01*
X141864285Y-91388095D01*
%TO.C,C11*%
X138257142Y-101807142D02*
X138209523Y-101854761D01*
X138066666Y-101902380D01*
X137971428Y-101902380D01*
X137828571Y-101854761D01*
X137733333Y-101759523D01*
X137685714Y-101664285D01*
X137638095Y-101473809D01*
X137638095Y-101330952D01*
X137685714Y-101140476D01*
X137733333Y-101045238D01*
X137828571Y-100950000D01*
X137971428Y-100902380D01*
X138066666Y-100902380D01*
X138209523Y-100950000D01*
X138257142Y-100997619D01*
X139209523Y-101902380D02*
X138638095Y-101902380D01*
X138923809Y-101902380D02*
X138923809Y-100902380D01*
X138828571Y-101045238D01*
X138733333Y-101140476D01*
X138638095Y-101188095D01*
X140161904Y-101902380D02*
X139590476Y-101902380D01*
X139876190Y-101902380D02*
X139876190Y-100902380D01*
X139780952Y-101045238D01*
X139685714Y-101140476D01*
X139590476Y-101188095D01*
%TO.C,C10*%
X130357142Y-100357142D02*
X130309523Y-100404761D01*
X130166666Y-100452380D01*
X130071428Y-100452380D01*
X129928571Y-100404761D01*
X129833333Y-100309523D01*
X129785714Y-100214285D01*
X129738095Y-100023809D01*
X129738095Y-99880952D01*
X129785714Y-99690476D01*
X129833333Y-99595238D01*
X129928571Y-99500000D01*
X130071428Y-99452380D01*
X130166666Y-99452380D01*
X130309523Y-99500000D01*
X130357142Y-99547619D01*
X131309523Y-100452380D02*
X130738095Y-100452380D01*
X131023809Y-100452380D02*
X131023809Y-99452380D01*
X130928571Y-99595238D01*
X130833333Y-99690476D01*
X130738095Y-99738095D01*
X131928571Y-99452380D02*
X132023809Y-99452380D01*
X132119047Y-99500000D01*
X132166666Y-99547619D01*
X132214285Y-99642857D01*
X132261904Y-99833333D01*
X132261904Y-100071428D01*
X132214285Y-100261904D01*
X132166666Y-100357142D01*
X132119047Y-100404761D01*
X132023809Y-100452380D01*
X131928571Y-100452380D01*
X131833333Y-100404761D01*
X131785714Y-100357142D01*
X131738095Y-100261904D01*
X131690476Y-100071428D01*
X131690476Y-99833333D01*
X131738095Y-99642857D01*
X131785714Y-99547619D01*
X131833333Y-99500000D01*
X131928571Y-99452380D01*
%TO.C,C9*%
X123833333Y-100357142D02*
X123785714Y-100404761D01*
X123642857Y-100452380D01*
X123547619Y-100452380D01*
X123404761Y-100404761D01*
X123309523Y-100309523D01*
X123261904Y-100214285D01*
X123214285Y-100023809D01*
X123214285Y-99880952D01*
X123261904Y-99690476D01*
X123309523Y-99595238D01*
X123404761Y-99500000D01*
X123547619Y-99452380D01*
X123642857Y-99452380D01*
X123785714Y-99500000D01*
X123833333Y-99547619D01*
X124309523Y-100452380D02*
X124500000Y-100452380D01*
X124595238Y-100404761D01*
X124642857Y-100357142D01*
X124738095Y-100214285D01*
X124785714Y-100023809D01*
X124785714Y-99642857D01*
X124738095Y-99547619D01*
X124690476Y-99500000D01*
X124595238Y-99452380D01*
X124404761Y-99452380D01*
X124309523Y-99500000D01*
X124261904Y-99547619D01*
X124214285Y-99642857D01*
X124214285Y-99880952D01*
X124261904Y-99976190D01*
X124309523Y-100023809D01*
X124404761Y-100071428D01*
X124595238Y-100071428D01*
X124690476Y-100023809D01*
X124738095Y-99976190D01*
X124785714Y-99880952D01*
%TO.C,C8*%
X115857142Y-90527918D02*
X115904761Y-90575537D01*
X115952380Y-90718394D01*
X115952380Y-90813632D01*
X115904761Y-90956490D01*
X115809523Y-91051728D01*
X115714285Y-91099347D01*
X115523809Y-91146966D01*
X115380952Y-91146966D01*
X115190476Y-91099347D01*
X115095238Y-91051728D01*
X115000000Y-90956490D01*
X114952380Y-90813632D01*
X114952380Y-90718394D01*
X115000000Y-90575537D01*
X115047619Y-90527918D01*
X115380952Y-89956490D02*
X115333333Y-90051728D01*
X115285714Y-90099347D01*
X115190476Y-90146966D01*
X115142857Y-90146966D01*
X115047619Y-90099347D01*
X115000000Y-90051728D01*
X114952380Y-89956490D01*
X114952380Y-89766013D01*
X115000000Y-89670775D01*
X115047619Y-89623156D01*
X115142857Y-89575537D01*
X115190476Y-89575537D01*
X115285714Y-89623156D01*
X115333333Y-89670775D01*
X115380952Y-89766013D01*
X115380952Y-89956490D01*
X115428571Y-90051728D01*
X115476190Y-90099347D01*
X115571428Y-90146966D01*
X115761904Y-90146966D01*
X115857142Y-90099347D01*
X115904761Y-90051728D01*
X115952380Y-89956490D01*
X115952380Y-89766013D01*
X115904761Y-89670775D01*
X115857142Y-89623156D01*
X115761904Y-89575537D01*
X115571428Y-89575537D01*
X115476190Y-89623156D01*
X115428571Y-89670775D01*
X115380952Y-89766013D01*
%TO.C,C7*%
X124857142Y-86666666D02*
X124904761Y-86714285D01*
X124952380Y-86857142D01*
X124952380Y-86952380D01*
X124904761Y-87095238D01*
X124809523Y-87190476D01*
X124714285Y-87238095D01*
X124523809Y-87285714D01*
X124380952Y-87285714D01*
X124190476Y-87238095D01*
X124095238Y-87190476D01*
X124000000Y-87095238D01*
X123952380Y-86952380D01*
X123952380Y-86857142D01*
X124000000Y-86714285D01*
X124047619Y-86666666D01*
X123952380Y-86333333D02*
X123952380Y-85666666D01*
X124952380Y-86095238D01*
%TO.C,C6*%
X140333333Y-93907142D02*
X140285714Y-93954761D01*
X140142857Y-94002380D01*
X140047619Y-94002380D01*
X139904761Y-93954761D01*
X139809523Y-93859523D01*
X139761904Y-93764285D01*
X139714285Y-93573809D01*
X139714285Y-93430952D01*
X139761904Y-93240476D01*
X139809523Y-93145238D01*
X139904761Y-93050000D01*
X140047619Y-93002380D01*
X140142857Y-93002380D01*
X140285714Y-93050000D01*
X140333333Y-93097619D01*
X141190476Y-93002380D02*
X141000000Y-93002380D01*
X140904761Y-93050000D01*
X140857142Y-93097619D01*
X140761904Y-93240476D01*
X140714285Y-93430952D01*
X140714285Y-93811904D01*
X140761904Y-93907142D01*
X140809523Y-93954761D01*
X140904761Y-94002380D01*
X141095238Y-94002380D01*
X141190476Y-93954761D01*
X141238095Y-93907142D01*
X141285714Y-93811904D01*
X141285714Y-93573809D01*
X141238095Y-93478571D01*
X141190476Y-93430952D01*
X141095238Y-93383333D01*
X140904761Y-93383333D01*
X140809523Y-93430952D01*
X140761904Y-93478571D01*
X140714285Y-93573809D01*
%TO.C,C5*%
X136833333Y-86407142D02*
X136785714Y-86454761D01*
X136642857Y-86502380D01*
X136547619Y-86502380D01*
X136404761Y-86454761D01*
X136309523Y-86359523D01*
X136261904Y-86264285D01*
X136214285Y-86073809D01*
X136214285Y-85930952D01*
X136261904Y-85740476D01*
X136309523Y-85645238D01*
X136404761Y-85550000D01*
X136547619Y-85502380D01*
X136642857Y-85502380D01*
X136785714Y-85550000D01*
X136833333Y-85597619D01*
X137738095Y-85502380D02*
X137261904Y-85502380D01*
X137214285Y-85978571D01*
X137261904Y-85930952D01*
X137357142Y-85883333D01*
X137595238Y-85883333D01*
X137690476Y-85930952D01*
X137738095Y-85978571D01*
X137785714Y-86073809D01*
X137785714Y-86311904D01*
X137738095Y-86407142D01*
X137690476Y-86454761D01*
X137595238Y-86502380D01*
X137357142Y-86502380D01*
X137261904Y-86454761D01*
X137214285Y-86407142D01*
%TO.C,C4*%
X132333333Y-88087142D02*
X132285714Y-88134761D01*
X132142857Y-88182380D01*
X132047619Y-88182380D01*
X131904761Y-88134761D01*
X131809523Y-88039523D01*
X131761904Y-87944285D01*
X131714285Y-87753809D01*
X131714285Y-87610952D01*
X131761904Y-87420476D01*
X131809523Y-87325238D01*
X131904761Y-87230000D01*
X132047619Y-87182380D01*
X132142857Y-87182380D01*
X132285714Y-87230000D01*
X132333333Y-87277619D01*
X133190476Y-87515714D02*
X133190476Y-88182380D01*
X132952380Y-87134761D02*
X132714285Y-87849047D01*
X133333333Y-87849047D01*
%TO.C,C3*%
X116283333Y-86807142D02*
X116235714Y-86854761D01*
X116092857Y-86902380D01*
X115997619Y-86902380D01*
X115854761Y-86854761D01*
X115759523Y-86759523D01*
X115711904Y-86664285D01*
X115664285Y-86473809D01*
X115664285Y-86330952D01*
X115711904Y-86140476D01*
X115759523Y-86045238D01*
X115854761Y-85950000D01*
X115997619Y-85902380D01*
X116092857Y-85902380D01*
X116235714Y-85950000D01*
X116283333Y-85997619D01*
X116616666Y-85902380D02*
X117235714Y-85902380D01*
X116902380Y-86283333D01*
X117045238Y-86283333D01*
X117140476Y-86330952D01*
X117188095Y-86378571D01*
X117235714Y-86473809D01*
X117235714Y-86711904D01*
X117188095Y-86807142D01*
X117140476Y-86854761D01*
X117045238Y-86902380D01*
X116759523Y-86902380D01*
X116664285Y-86854761D01*
X116616666Y-86807142D01*
%TO.C,C2*%
X110883333Y-84727142D02*
X110835714Y-84774761D01*
X110692857Y-84822380D01*
X110597619Y-84822380D01*
X110454761Y-84774761D01*
X110359523Y-84679523D01*
X110311904Y-84584285D01*
X110264285Y-84393809D01*
X110264285Y-84250952D01*
X110311904Y-84060476D01*
X110359523Y-83965238D01*
X110454761Y-83870000D01*
X110597619Y-83822380D01*
X110692857Y-83822380D01*
X110835714Y-83870000D01*
X110883333Y-83917619D01*
X111264285Y-83917619D02*
X111311904Y-83870000D01*
X111407142Y-83822380D01*
X111645238Y-83822380D01*
X111740476Y-83870000D01*
X111788095Y-83917619D01*
X111835714Y-84012857D01*
X111835714Y-84108095D01*
X111788095Y-84250952D01*
X111216666Y-84822380D01*
X111835714Y-84822380D01*
%TO.C,C1*%
X109177142Y-82166666D02*
X109224761Y-82214285D01*
X109272380Y-82357142D01*
X109272380Y-82452380D01*
X109224761Y-82595238D01*
X109129523Y-82690476D01*
X109034285Y-82738095D01*
X108843809Y-82785714D01*
X108700952Y-82785714D01*
X108510476Y-82738095D01*
X108415238Y-82690476D01*
X108320000Y-82595238D01*
X108272380Y-82452380D01*
X108272380Y-82357142D01*
X108320000Y-82214285D01*
X108367619Y-82166666D01*
X109272380Y-81214285D02*
X109272380Y-81785714D01*
X109272380Y-81500000D02*
X108272380Y-81500000D01*
X108415238Y-81595238D01*
X108510476Y-81690476D01*
X108558095Y-81785714D01*
D11*
%TO.C,R3*%
X113477500Y-89587742D02*
X113477500Y-90062258D01*
X114522500Y-89587742D02*
X114522500Y-90062258D01*
%TO.C,R2*%
X114937742Y-97477500D02*
X115412258Y-97477500D01*
X114937742Y-98522500D02*
X115412258Y-98522500D01*
%TO.C,R1*%
X112022500Y-92737258D02*
X112022500Y-92262742D01*
X110977500Y-92737258D02*
X110977500Y-92262742D01*
%TO.C,Q1*%
X113940000Y-94500000D02*
X113940000Y-93850000D01*
X117060000Y-94500000D02*
X117060000Y-93850000D01*
X113940000Y-94500000D02*
X113940000Y-96175000D01*
X117060000Y-94500000D02*
X117060000Y-95150000D01*
%TO.C,J1*%
X103400000Y-100700000D02*
X103400000Y-90400000D01*
X104510000Y-91750000D02*
X104510000Y-96830000D01*
X109350000Y-97500000D02*
X109350000Y-100700000D01*
X103500000Y-91750000D02*
X104510000Y-91750000D01*
X104510000Y-96830000D02*
X103500000Y-96830000D01*
X109350000Y-100700000D02*
X103400000Y-100700000D01*
X103400000Y-90400000D02*
X109400000Y-90400000D01*
X109400000Y-90400000D02*
X109400000Y-96150000D01*
%TO.C,D10*%
X142150000Y-84800000D02*
X134850000Y-84800000D01*
X142150000Y-79300000D02*
X134850000Y-79300000D01*
X134850000Y-79300000D02*
X134850000Y-80450000D01*
%TO.C,D9*%
X141150000Y-100300000D02*
X141150000Y-99150000D01*
X133850000Y-100300000D02*
X141150000Y-100300000D01*
X133850000Y-94800000D02*
X141150000Y-94800000D01*
%TO.C,D8*%
X134650000Y-84800000D02*
X127350000Y-84800000D01*
X134650000Y-79300000D02*
X127350000Y-79300000D01*
X127350000Y-79300000D02*
X127350000Y-80450000D01*
%TO.C,D7*%
X125915000Y-93355000D02*
X133215000Y-93355000D01*
X125915000Y-98855000D02*
X133215000Y-98855000D01*
X133215000Y-98855000D02*
X133215000Y-97705000D01*
%TO.C,D6*%
X127150000Y-84800000D02*
X119850000Y-84800000D01*
X127150000Y-79300000D02*
X119850000Y-79300000D01*
X119850000Y-79300000D02*
X119850000Y-80450000D01*
%TO.C,D5*%
X125150000Y-98800000D02*
X117850000Y-98800000D01*
X125150000Y-93300000D02*
X117850000Y-93300000D01*
X117850000Y-93300000D02*
X117850000Y-94450000D01*
%TO.C,D4*%
X119150000Y-84800000D02*
X111850000Y-84800000D01*
X119150000Y-79300000D02*
X111850000Y-79300000D01*
X111850000Y-79300000D02*
X111850000Y-80450000D01*
%TO.C,D3*%
X117850000Y-87300000D02*
X125150000Y-87300000D01*
X117850000Y-92800000D02*
X125150000Y-92800000D01*
X125150000Y-92800000D02*
X125150000Y-91650000D01*
%TO.C,D2*%
X126850000Y-87300000D02*
X134150000Y-87300000D01*
X126850000Y-92800000D02*
X134150000Y-92800000D01*
X134150000Y-92800000D02*
X134150000Y-91650000D01*
%TO.C,D1*%
X141650000Y-92800000D02*
X134350000Y-92800000D01*
X141650000Y-87300000D02*
X134350000Y-87300000D01*
X134350000Y-87300000D02*
X134350000Y-88450000D01*
%TO.C,C11*%
X135188748Y-100765000D02*
X135711252Y-100765000D01*
X135188748Y-102235000D02*
X135711252Y-102235000D01*
%TO.C,C10*%
X127738748Y-100735000D02*
X128261252Y-100735000D01*
X127738748Y-99265000D02*
X128261252Y-99265000D01*
%TO.C,C9*%
X121211252Y-99315000D02*
X120688748Y-99315000D01*
X121211252Y-100785000D02*
X120688748Y-100785000D01*
%TO.C,C8*%
X116265000Y-89838748D02*
X116265000Y-90361252D01*
X117735000Y-89838748D02*
X117735000Y-90361252D01*
%TO.C,C7*%
X125265000Y-86688748D02*
X125265000Y-87211252D01*
X126735000Y-86688748D02*
X126735000Y-87211252D01*
%TO.C,C6*%
X138261252Y-92815000D02*
X137738748Y-92815000D01*
X138261252Y-94285000D02*
X137738748Y-94285000D01*
%TO.C,C5*%
X140211252Y-86785000D02*
X139688748Y-86785000D01*
X140211252Y-85315000D02*
X139688748Y-85315000D01*
%TO.C,C4*%
X132761252Y-85315000D02*
X132238748Y-85315000D01*
X132761252Y-86785000D02*
X132238748Y-86785000D01*
%TO.C,C3*%
X119238748Y-87235000D02*
X119761252Y-87235000D01*
X119238748Y-85765000D02*
X119761252Y-85765000D01*
%TO.C,C2*%
X110788748Y-86785000D02*
X111311252Y-86785000D01*
X110788748Y-85315000D02*
X111311252Y-85315000D01*
%TO.C,C1*%
X111235000Y-82261252D02*
X111235000Y-81738748D01*
X109765000Y-82261252D02*
X109765000Y-81738748D01*
%TD*%
M02*
