%TF.GenerationSoftware,KiCad,Pcbnew,6.0.7-f9a2dced07~116~ubuntu20.04.1*%
%TF.CreationDate,2022-09-29T18:09:13+00:00*%
%TF.ProjectId,RGB,5247422e-6b69-4636-9164-5f7063625858,rev?*%
%TF.SameCoordinates,Original*%
%TF.FileFunction,Legend,Bot*%
%TF.FilePolarity,Positive*%
%FSLAX46Y46*%
G04 Gerber Fmt 4.6, Leading zero omitted, Abs format (unit mm)*
G04 Created by KiCad (PCBNEW 6.0.7-f9a2dced07~116~ubuntu20.04.1) date 2022-09-29 18:09:13*
%MOMM*%
%LPD*%
G01*
G04 APERTURE LIST*
%ADD10C,0.150000*%
G04 APERTURE END LIST*
D10*
X126571428Y-90357142D02*
X126619047Y-90404761D01*
X126761904Y-90452380D01*
X126857142Y-90452380D01*
X127000000Y-90404761D01*
X127095238Y-90309523D01*
X127142857Y-90214285D01*
X127190476Y-90023809D01*
X127190476Y-89880952D01*
X127142857Y-89690476D01*
X127095238Y-89595238D01*
X127000000Y-89500000D01*
X126857142Y-89452380D01*
X126761904Y-89452380D01*
X126619047Y-89500000D01*
X126571428Y-89547619D01*
X125952380Y-89452380D02*
X125761904Y-89452380D01*
X125666666Y-89500000D01*
X125571428Y-89595238D01*
X125523809Y-89785714D01*
X125523809Y-90119047D01*
X125571428Y-90309523D01*
X125666666Y-90404761D01*
X125761904Y-90452380D01*
X125952380Y-90452380D01*
X126047619Y-90404761D01*
X126142857Y-90309523D01*
X126190476Y-90119047D01*
X126190476Y-89785714D01*
X126142857Y-89595238D01*
X126047619Y-89500000D01*
X125952380Y-89452380D01*
X124523809Y-90452380D02*
X124857142Y-89976190D01*
X125095238Y-90452380D02*
X125095238Y-89452380D01*
X124714285Y-89452380D01*
X124619047Y-89500000D01*
X124571428Y-89547619D01*
X124523809Y-89642857D01*
X124523809Y-89785714D01*
X124571428Y-89880952D01*
X124619047Y-89928571D01*
X124714285Y-89976190D01*
X125095238Y-89976190D01*
X124095238Y-89928571D02*
X123761904Y-89928571D01*
X123619047Y-90452380D02*
X124095238Y-90452380D01*
X124095238Y-89452380D01*
X123619047Y-89452380D01*
X122857142Y-89928571D02*
X122714285Y-89976190D01*
X122666666Y-90023809D01*
X122619047Y-90119047D01*
X122619047Y-90261904D01*
X122666666Y-90357142D01*
X122714285Y-90404761D01*
X122809523Y-90452380D01*
X123190476Y-90452380D01*
X123190476Y-89452380D01*
X122857142Y-89452380D01*
X122761904Y-89500000D01*
X122714285Y-89547619D01*
X122666666Y-89642857D01*
X122666666Y-89738095D01*
X122714285Y-89833333D01*
X122761904Y-89880952D01*
X122857142Y-89928571D01*
X123190476Y-89928571D01*
X121999999Y-89452380D02*
X121809523Y-89452380D01*
X121714285Y-89500000D01*
X121619047Y-89595238D01*
X121571428Y-89785714D01*
X121571428Y-90119047D01*
X121619047Y-90309523D01*
X121714285Y-90404761D01*
X121809523Y-90452380D01*
X121999999Y-90452380D01*
X122095238Y-90404761D01*
X122190476Y-90309523D01*
X122238095Y-90119047D01*
X122238095Y-89785714D01*
X122190476Y-89595238D01*
X122095238Y-89500000D01*
X121999999Y-89452380D01*
X121285714Y-89452380D02*
X120714285Y-89452380D01*
X120999999Y-90452380D02*
X120999999Y-89452380D01*
M02*
